<svg xmlns="http://www.w3.org/2000/svg" viewBox="0 0 258.78 71.36"><defs><style>.cls-1{font-size:48px;font-family:SegoeUI-Semibold, Segoe UI;font-weight:600;}.cls-1,.cls-4{fill:#fff;}.cls-2{font-family:SegoeUI-Bold, Segoe UI;font-weight:700;}.cls-3{fill:none;stroke:#fff;stroke-miterlimit:10;}</style></defs><g id="Layer_2" data-name="Layer 2"><g id="Layer_1-2" data-name="Layer 1"><text class="cls-1" transform="translate(0 50.69)">QuizGen<tspan class="cls-2" x="186.09" y="0">AI</tspan></text><line class="cls-3" x1="190.5" y1="50.19" x2="190.5" y2="57.19"/><line class="cls-3" x1="5.5" y1="57.19" x2="245" y2="57.19"/><line class="cls-3" x1="203.5" y1="21.19" x2="203.5" y2="3.19"/><path class="cls-4" d="M203.28,9a4.55,4.55,0,0,0,4.5-4.5,4.5,4.5,0,0,0-9,0,4.57,4.57,0,0,0,4.5,4.5Z"/><path class="cls-4" d="M5.28,62a4.5,4.5,0,0,0,0-9,4.5,4.5,0,0,0,0,9Z"/><path class="cls-4" d="M245.28,61a4.5,4.5,0,1,0-4.5-4.5,4.55,4.55,0,0,0,4.5,4.5Z"/><polyline class="cls-3" points="235.75 57.19 235.5 47.19 254.5 47.19"/><path class="cls-4" d="M254.28,52a4.5,4.5,0,1,0-4.5-4.5,4.55,4.55,0,0,0,4.5,4.5Z"/><line class="cls-3" x1="214" y1="40.19" x2="226" y2="40.19"/></g></g></svg>